<?xml version="1.0" encoding="utf-8"?>
<!-- Generator: Adobe Illustrator 26.3.1, SVG Export Plug-In . SVG Version: 6.00 Build 0)  -->
<svg version="1.1" id="Layer_1" xmlns="http://www.w3.org/2000/svg" xmlns:xlink="http://www.w3.org/1999/xlink" x="0px" y="0px"
	 viewBox="0 0 75.1 19.8" style="enable-background:new 0 0 75.1 19.8;" xml:space="preserve">
<style type="text/css">
	.st0{fill-rule:evenodd;clip-rule:evenodd;fill:#A2A2A2;}
	.st1{fill-rule:evenodd;clip-rule:evenodd;fill:#262626;}
	.st2{fill:#262626;}
</style>
<g>
	<g>
		<g>
			<g>
				<path class="st2" d="M11.6,1c3.1,0,6.2,0,9.3,0c1,0,1.9,0.3,2.5,1.1C23.8,2.5,24,3.1,24,3.7c0,0.3,0,0.6,0,1c0,3.7,0,7.3,0,11
					c0,1.5-0.8,2.6-2.2,3c-0.3,0.1-0.6,0.1-1,0.1c-5.4,0-10.8,0-16.1,0c-1.8,0-3.2-1.3-3.2-2.9c0-2.1-0.1-4.2,0-6.3
					C1.7,8.2,3,7,4.4,6.9c4.5,0,8.9,0,13.4,0c0.2,0,0.2,0.1,0.2,0.3c0,0.8,0,1.6,0,2.4c0,0.3-0.1,0.3-0.3,0.3c-4,0-7.9,0-11.9,0
					c-0.1,0-0.2,0-0.3,0c-0.6,0-1,0.4-1,1c0,1.3,0,2.6,0,3.9c0,0.6,0.4,1,0.9,1c0.1,0,0.2,0,0.3,0c4.7,0,9.4,0,14,0
					c0.9,0,1.2-0.3,1.2-1.2c0-3.2,0-6.3,0-9.5c0-0.9-0.3-1.2-1.2-1.2c-6,0-12,0-17.9,0C1.6,4,1.5,3.9,1.5,3.6c0-0.8,0-1.5,0-2.3
					C1.5,1,1.6,1,1.9,1C5.1,1,8.3,1,11.6,1L11.6,1z"/>
				<path class="st2" d="M71.3,11c0,0.6,0,1.1,0,1.7c0,0.5,0.1,0.7,0.5,0.7c0.4,0,0.6-0.2,0.7-0.6c0-0.4,0-0.8,0-1.2
					c0-0.2,0-0.2,0.2-0.2c0.2,0,0.5,0,0.7,0c0.1,0,0.2,0,0.2,0.1c0,0.6,0.1,1.2-0.1,1.8c-0.1,0.6-0.5,1.1-1.2,1.3
					c-0.6,0.2-1.2,0.2-1.8,0.1c-1-0.2-1.6-0.8-1.6-1.9c0-1.1,0-2.2,0-3.3C69,9,68.9,9,68.7,9c-0.9,0-1.7,0-2.6,0
					c-0.2,0-0.3,0-0.3,0.2c0,1.2,0,2.3,0,3.5c0,0.4,0.1,0.6,0.4,0.6c0.4,0,0.6-0.2,0.7-0.6c0-0.4,0-0.9,0-1.3c0-0.2,0-0.2,0.2-0.2
					c0.3,0,0.7-0.1,0.8,0c0.2,0.2,0,0.5,0.1,0.8c0,0.3,0,0.6,0,0.9c-0.1,0.8-0.6,1.3-1.4,1.5c-0.5,0.1-1,0.1-1.5,0
					c-1-0.2-1.6-0.8-1.7-2c0-1.1,0-2.2,0-3.3c0-0.2,0-0.3-0.3-0.3c-0.6,0-0.6,0-0.6-0.6c0-0.1,0-0.2,0-0.2c0-0.1,0-0.2,0.2-0.2
					c0.7-0.1,1.1-0.5,1.3-1.1c0.2-0.4,0.3-0.8,0.3-1.2c0-0.2,0.1-0.3,0.3-0.3c0.3,0,0.6,0,0.9,0c0.2,0,0.2,0.1,0.2,0.2
					c0,0.7,0,1.4,0,2.1c0,0.2,0,0.2,0.2,0.2c0.6,0,1.3,0,1.9,0c0.7,0,1.1-0.3,1.4-0.9c0.2-0.5,0.4-1,0.4-1.5c0-0.2,0.1-0.3,0.3-0.3
					c0.3,0,0.5,0,0.8,0c0.2,0,0.3,0,0.3,0.3c0,0.7,0,1.4,0,2c0,0.2,0.1,0.3,0.3,0.2c0.4,0,0.8,0,1.2,0c0.2,0,0.3,0,0.3,0.3
					c0,0.3,0.1,0.6-0.1,0.8c-0.2,0.1-0.5,0-0.8,0c-0.2,0-0.4,0-0.6,0c-0.2,0-0.3,0-0.3,0.3C71.3,9.9,71.3,10.5,71.3,11L71.3,11z"/>
				<path class="st2" d="M38.6,13.2c-0.5,0.1-0.8-0.2-1-0.6c0-0.1-0.1-0.2-0.1-0.3C36.8,10,36,7.7,35.2,5.4
					c-0.1-0.2-0.1-0.2-0.4-0.2c-0.7,0-1.5,0-2.2,0c-0.2,0-0.3,0-0.4,0.3c-0.7,2.2-1.5,4.4-2.2,6.6c-0.1,0.2-0.2,0.5-0.3,0.7
					c-0.1,0.2-0.3,0.3-0.5,0.4c-0.2,0-0.5-0.1-0.6,0.1c-0.1,0.2,0,0.5,0,0.7c0,0.1,0,0.2,0,0.3c0,0.2,0,0.2,0.2,0.2h3.7
					c0.2,0,0.2,0,0.2-0.2c0-0.3,0-0.5,0-0.8c0-0.2,0-0.2-0.2-0.2c-0.2,0-0.5,0-0.7,0c-0.3-0.1-0.4-0.2-0.3-0.5
					c0.1-0.3,0.2-0.7,0.3-1.1c0-0.1,0.1-0.1,0.2-0.1c0.8,0,1.7,0,2.5,0c0.1,0,0.2,0,0.2,0.1c0.1,0.4,0.2,0.8,0.3,1.2
					c0.1,0.2,0,0.4-0.3,0.4c-0.2,0-0.4,0-0.6,0s-0.3,0-0.3,0.2c0,0.2,0,0.5,0,0.7c0,0.2,0,0.3,0.2,0.2c0.8,0,1.5,0,2.3,0h2.4
					c0.1,0,0.2,0,0.2-0.2c0-0.2,0-0.5,0-0.7C38.9,13.3,38.9,13.1,38.6,13.2z M32.2,10.2c0.3-1,0.7-2,1-3c0.3,1,0.7,2,1,3H32.2z"/>
				<path class="st2" d="M46.3,9.2c-0.6-1.4-2.2-1.9-3.4-1.3c-0.3,0.2-0.6,0.4-0.9,0.7v-3c0-0.3-0.1-0.4-0.4-0.4h-2.5
					c-0.4,0-0.6,0.2-0.6,0.6c0,0.3,0.2,0.5,0.5,0.5c0.5,0,0.6,0.1,0.6,0.6v0.3c0,2.3,0,4.6,0,6.9c0,0.2,0,0.3,0.3,0.3
					c0.2,0,0.4,0,0.5,0c0.6,0.1,1-0.1,1.1-0.7c0,0,0-0.1,0.1-0.2c0.9,1.5,3.8,1.5,4.7-0.5C46.9,11.8,46.9,10.5,46.3,9.2z M44,12.8
					c-0.2,0.5-0.7,0.7-1.2,0.5c-0.3-0.1-0.5-0.4-0.6-0.7c-0.2-0.7-0.2-1.5-0.1-2.3c0-0.3,0.1-0.7,0.3-1c0.2-0.3,0.4-0.5,0.8-0.5
					c0.4,0,0.7,0.2,0.8,0.5c0.3,0.6,0.3,1.2,0.3,1.7C44.2,11.7,44.2,12.3,44,12.8z"/>
				<path class="st2" d="M54.3,9.4c-0.6-1.8-2.9-2.4-4.2-1c0,0-0.1,0.1-0.1,0.1c0-1,0-2,0-3c0-0.3,0-0.4-0.4-0.4c-0.8,0-1.6,0-2.4,0
					c-0.5,0-0.7,0.2-0.7,0.7c0,0.3,0.1,0.4,0.4,0.4c0.7,0,0.8,0.1,0.8,0.7v6.7c0,0.7,0,0.6,0.7,0.7c0.7,0.1,1.2,0,1.2-0.9l0.1,0
					c0,0,0,0.1,0.1,0.1c0.8,1.3,3.8,1.4,4.6-0.6C54.7,11.9,54.7,10.7,54.3,9.4z M52.1,11.9c0,0.3-0.1,0.5-0.2,0.8
					c-0.2,0.5-0.5,0.8-0.9,0.8c-0.4,0-0.7-0.2-0.9-0.8s-0.2-1-0.2-1.5c0-0.6,0-1.2,0.3-1.7C50.4,8.9,51,8.7,51.5,9
					c0.2,0.2,0.4,0.4,0.5,0.7C52.1,10.4,52.1,11.2,52.1,11.9z"/>
				<path class="st2" d="M61,8.2c-0.6-0.4-1.3-0.5-2-0.5c-2-0.1-3.5,1.1-3.7,3c-0.1,1.4,0.2,2.6,1.5,3.3c0.6,0.4,1.3,0.5,1.8,0.5
					c2.4,0.1,3.9-1.3,3.9-3.4C62.5,10,62.1,8.9,61,8.2z M59.8,12.8c-0.2,0.4-0.5,0.7-0.9,0.6c-0.4,0-0.7-0.2-0.9-0.6
					c-0.1-0.3-0.2-0.6-0.2-1c-0.1-0.7-0.1-1.4,0.1-2.1c0-0.2,0.1-0.3,0.1-0.5c0.2-0.4,0.5-0.6,0.9-0.5c0.4,0,0.7,0.2,0.9,0.6
					C60,10,60,10.6,60,11.2C60,11.7,60,12.3,59.8,12.8z"/>
			</g>
		</g>
	</g>
</g>
</svg>
